<?xml version="1.0"?>
<svg width="750" height="850" xmlns="http://www.w3.org/2000/svg" xmlns:svg="http://www.w3.org/2000/svg" version="1.1" xml:space="preserve">
 <desc>Created with Fabric.js 5.2.4</desc>
 <g class="layer">
  <title>Layer 1</title>
  <g id="f98ebf9b-c9e8-47b4-8498-0aea43a91b34" transform="translate(-164 -111) matrix(0.798525 0 0 0.808707 604 516.5)">
   <rect fill="none" fill-rule="nonzero" height="1080" id="svg_1" stroke-dashoffset="0" stroke-miterlimit="4" width="1080" x="-540" y="-540"/>
  </g>
  <g id="1c5c520d-570e-4f15-b62b-301fe1f99031" transform="translate(-164 -111) matrix(1 0 0 1 540 540)"/>
  <g id="svg_3" transform="translate(-164 -111) matrix(0.69 0 0 0.69 576.74 344.38)">
   <g id="svg_4">
    <g id="svg_5" transform="matrix(12.5 0 0 12.5 0 0)">
     <path d="m48,5c-4.42,0 -8.42,1.79 -11.31,4.69l-4.69,4.65l-4.69,-4.65c-2.89,-2.9 -6.89,-4.69 -11.31,-4.69c-8.84,0 -16,7.16 -16,16c0,4.42 2.85,8.54 5.75,11.44l23.42,23.42c1.56,1.57 4.1,1.57 5.66,0l23.36,-23.36c2.9,-2.89 5.81,-7.08 5.81,-11.5c0,-8.84 -7.16,-16 -16,-16zm-16,42.38l-20.62,-20.63c-1.45,-1.45 -3.38,-3.54 -3.38,-5.75c0,-4.42 3.58,-8 8,-8c2.21,0 4.21,0.89 5.66,2.34l7.51,7.49c1.56,1.56 4.1,1.56 5.66,0l7.51,-7.49c1.45,-1.45 3.45,-2.34 5.66,-2.34c4.42,0 8,3.58 8,8c0,2.21 -1.93,4.3 -3.37,5.75l-20.63,20.63z" fill="rgb(0,0,0)" fill-rule="nonzero" id="svg_6" stroke-dashoffset="0" stroke-miterlimit="4" transform=" translate(-32, -31.02)"/>
    </g>
    <g id="svg_7" transform="matrix(12.5 0 0 12.5 0 -10.38)">
     <path d="m32,47.38l-20.62,-20.63c-1.45,-1.45 -3.38,-3.54 -3.38,-5.75c0,-4.42 3.58,-8 8,-8c2.21,0 4.21,0.89 5.66,2.34l7.51,7.49c1.56,1.56 4.1,1.56 5.66,0l7.51,-7.49c1.45,-1.45 3.45,-2.34 5.66,-2.34c4.42,0 8,3.58 8,8c0,2.21 -1.93,4.3 -3.37,5.75l-20.63,20.63z" fill="rgb(224, 25, 35)" fill-rule="nonzero" id="svg_8" stroke-dashoffset="0" stroke-miterlimit="4" transform=" translate(-32, -30.19)"/>
    </g>
   </g>
  </g>
  <rect fill="#0000ff" height="271" id="svg_9" stroke="#000000" stroke-width="5" width="84" x="44.8" y="523.4"/>
  <path d="m156.8,569.4c0,0 1,169 1,169c0,0 211,59 210.2,58.6c-0.8,-0.4 112.8,-24.6 112,-25c-0.8,-0.4 214.8,-156.6 214,-157c-0.8,-0.4 -42.2,-28.6 -43,-29c-0.8,-0.4 -205.2,98.4 -206,98c-0.8,-0.4 -200.2,-0.6 -201,-1c-0.8,-0.4 -0.2,-37.6 -0.2,-37.6c0,0 188,0 187.2,-0.4c-0.8,-0.4 11.8,-38.6 11,-39c-0.8,-0.4 -123.2,0.4 -124,0c-0.8,-0.4 -117.2,-39.6 -118,-40c-0.8,-0.4 -43.2,3.4 -43.2,3.4z" fill="#ffd4aa" id="svg_15" stroke="#000000" stroke-width="5"/>
  <g id="de62257c-ecbe-439d-a260-626a09749969" transform="translate(-164 -111) matrix(23.89 0 0 23.89 540 770.28)">
   <path d="m29.29,11.47c-0.49,-0.21 -1.06,-0.33 -1.65,-0.33c-0.65,0 -1.27,0.15 -1.82,0.41l0.03,-0.01l-5.12,2.3c-0.32,-1.36 -1.53,-2.36 -2.96,-2.36c-0.06,0 -0.12,0 -0.18,0l0.01,0l-3.71,0l-4.69,-1.37c-0.1,-0.03 -0.22,-0.05 -0.35,-0.05c0,0 0,0 0,0l-1.67,0l0,-0.26c0,-0.69 -0.56,-1.25 -1.25,-1.25l0,0l-3.88,0c-0.69,0 -1.25,0.56 -1.25,1.25l0,0l0,12.21c0,0.69 0.56,1.25 1.25,1.25l3.88,0c0.69,0 1.25,-0.56 1.25,-1.25l0,-0.44c1.6,0.32 2.99,0.74 4.33,1.28l-0.16,-0.06c1.21,0.43 2.6,0.68 4.06,0.68c1.67,0 3.27,-0.33 4.73,-0.93l-0.08,0.03c1.27,-0.56 2.35,-1.16 3.37,-1.84l-0.09,0.05c0.34,-0.21 0.67,-0.41 1.01,-0.61c1.65,-0.98 2.98,-1.83 4.17,-2.7c0.59,-0.42 1.12,-0.84 1.61,-1.29l-0.01,0.01c0.42,-0.35 0.76,-0.79 0.99,-1.29l0.01,-0.02c0.05,-0.14 0.08,-0.29 0.08,-0.46c0,-0.09 -0.01,-0.18 -0.03,-0.27l0,0.01c-0.17,-1.17 -0.88,-2.14 -1.86,-2.68l-0.02,-0.01zm-24.61,9.29l-1.38,0l0,-9.71l1.38,0l0,9.71zm23.7,-6.37c-0.4,0.36 -0.83,0.71 -1.28,1.03l-0.05,0.03c-1.12,0.81 -2.39,1.63 -3.97,2.57c-0.36,0.21 -0.7,0.42 -1.05,0.64c-0.83,0.55 -1.79,1.09 -2.79,1.54l-0.13,0.06c-1.1,0.45 -2.37,0.71 -3.7,0.71c-1.14,0 -2.23,-0.19 -3.25,-0.54l0.07,0.02c-1.45,-0.61 -3.15,-1.1 -4.91,-1.39l-0.14,-0.02l0,-6.48l1.49,0l4.69,1.37c0.1,0.03 0.23,0.05 0.35,0.05c0,0 0,0 0,0l3.89,0c0.45,0 0.7,0.17 0.7,0.47c0,0.3 -0.25,0.47 -0.7,0.47l-6.81,0c-0.69,0 -1.25,0.56 -1.25,1.25c0,0.69 0.56,1.25 1.25,1.25l0,0l7.78,0c0,0 0,0 0.01,0c0.18,0 0.36,-0.04 0.51,-0.11l0,0l7.8,-3.5c0.23,-0.11 0.49,-0.17 0.77,-0.17c0.19,0 0.36,0.03 0.53,0.08l-0.01,-0.01c0.18,0.12 0.32,0.29 0.4,0.49l0,0l-0.2,0.19z" fill="rgb(0,0,0)" fill-rule="nonzero" id="svg_2" stroke="rgb(0,0,0)" stroke-dashoffset="0" stroke-miterlimit="4" stroke-width="0" transform=" translate(-16, -16.01)"/>
  </g>
 </g>
</svg>