<?xml version="1.0" encoding="UTF-8" standalone="no" ?>
<!DOCTYPE svg PUBLIC "-//W3C//DTD SVG 1.1//EN" "http://www.w3.org/Graphics/SVG/1.1/DTD/svg11.dtd">
<svg xmlns="http://www.w3.org/2000/svg" xmlns:xlink="http://www.w3.org/1999/xlink" version="1.1" width="1080"
	height="1080" viewBox="0 0 1080 1080" xml:space="preserve">
	<desc>Created with Fabric.js 5.2.4</desc>
	<defs>
	</defs>

	<g transform="matrix(1 0 0 1 540 540)" id="f98ebf9b-c9e8-47b4-8498-0aea43a91b34">
		<rect
			style="stroke: none; stroke-width: 1; stroke-dasharray: none; stroke-linecap: butt; stroke-dashoffset: 0; stroke-linejoin: miter; stroke-miterlimit: 4; fill: rgb(255,255,255); fill-rule: nonzero; opacity: 1; visibility: hidden;"
			vector-effect="non-scaling-stroke" x="-540" y="-540" rx="0" ry="0" width="1080" height="1080" />
	</g>
	<g transform="matrix(1 0 0 1 540 540)" id="1c5c520d-570e-4f15-b62b-301fe1f99031">
	</g>
	<!-- Mano -->
	<g transform="matrix(23.89 0 0 23.89 540 770.28)" id="de62257c-ecbe-439d-a260-626a09749969">
		<path
			style="stroke: rgb(0,0,0); stroke-width: 0; stroke-dasharray: none; stroke-linecap: butt; stroke-dashoffset: 0; stroke-linejoin: miter; stroke-miterlimit: 4; fill: rgb(0,0,0); fill-rule: nonzero; opacity: 1;"
			vector-effect="non-scaling-stroke" transform=" translate(-16, -16.01)"
			d="M 29.287 11.473 C 28.8 11.263 28.233 11.141 27.637999999999998 11.141 C 26.988 11.141 26.372999999999998 11.286 25.820999999999998 11.546 L 25.846999999999998 11.535 L 20.726 13.836 C 20.406 12.476 19.201999999999998 11.479 17.766 11.479 C 17.709 11.479 17.651999999999997 11.481 17.595 11.484 L 17.602999999999998 11.484 L 13.891999999999998 11.484 L 9.200999999999997 10.111 C 9.096999999999998 10.079 8.975999999999997 10.06 8.851999999999997 10.06 C 8.850999999999997 10.06 8.849999999999996 10.06 8.848999999999997 10.06 L 7.179999999999996 10.06 L 7.179999999999996 9.802 C 7.179999999999996 9.112 6.619999999999996 8.552 5.929999999999996 8.552 L 5.929999999999996 8.552 L 2.046999999999996 8.552 C 1.3569999999999962 8.552 0.7969999999999962 9.112 0.7969999999999962 9.802 L 0.7969999999999962 9.802 L 0.7969999999999962 22.009999999999998 C 0.7969999999999962 22.7 1.3569999999999962 23.259999999999998 2.046999999999996 23.259999999999998 L 5.929999999999996 23.259999999999998 C 6.619999999999996 23.259999999999998 7.179999999999996 22.7 7.179999999999996 22.009999999999998 L 7.179999999999996 21.569999999999997 C 8.775999999999996 21.885999999999996 10.172999999999996 22.307999999999996 11.509999999999996 22.847999999999995 L 11.350999999999996 22.790999999999997 C 12.559999999999995 23.223999999999997 13.953999999999995 23.474999999999998 15.406999999999996 23.474999999999998 C 17.082999999999995 23.474999999999998 18.679999999999996 23.142 20.137999999999998 22.538999999999998 L 20.055999999999997 22.569 C 21.326999999999998 22.006 22.406999999999996 21.409 23.427999999999997 20.73 L 23.345 20.782 C 23.679 20.575 24.012999999999998 20.37 24.349 20.171 C 26.003 19.191 27.328 18.335 28.517 17.474 C 29.114 17.048000000000002 29.636 16.627 30.131 16.178 L 30.117 16.191000000000003 C 30.543 15.840000000000003 30.882 15.400000000000002 31.108 14.897000000000002 L 31.117 14.875000000000002 C 31.17 14.741000000000001 31.201 14.586000000000002 31.201 14.424000000000001 C 31.201 14.331000000000001 31.191 14.241000000000001 31.172 14.154000000000002 L 31.174 14.162 C 30.998 12.993 30.288999999999998 12.019000000000002 29.306 11.484000000000002 L 29.287000000000003 11.474000000000002 z M 4.681 20.76 L 3.298 20.76 L 3.298 11.052000000000001 L 4.681 11.052000000000001 z M 28.381 14.391 C 27.982 14.748 27.549 15.095 27.097 15.418 L 27.051000000000002 15.449 C 25.926000000000002 16.262 24.664 17.079 23.076 18.018 C 22.724 18.227 22.379 18.442 22.031 18.657 C 21.198 19.215 20.238 19.749 19.235999999999997 20.204 L 19.107999999999997 20.256 C 18.011999999999997 20.708000000000002 16.74 20.971 15.406999999999996 20.971 C 14.269999999999996 20.971 13.177999999999997 20.78 12.159999999999997 20.429 L 12.229999999999997 20.45 C 10.778999999999996 19.843999999999998 9.081999999999997 19.354 7.318999999999997 19.058999999999997 L 7.180999999999997 19.04 L 7.180999999999997 12.559999999999999 L 8.669999999999998 12.559999999999999 L 13.360999999999997 13.932999999999998 C 13.464999999999996 13.964999999999998 13.585999999999997 13.983999999999998 13.709999999999997 13.983999999999998 C 13.710999999999997 13.983999999999998 13.711999999999998 13.983999999999998 13.712999999999997 13.983999999999998 L 17.602999999999998 13.983999999999998 C 18.046 13.983999999999998 18.299999999999997 14.154999999999998 18.299999999999997 14.453999999999999 C 18.299999999999997 14.753 18.045999999999996 14.924 17.602999999999998 14.924 L 10.793999999999997 14.924 C 10.103999999999997 14.924 9.543999999999997 15.484 9.543999999999997 16.174 C 9.543999999999997 16.863999999999997 10.103999999999997 17.424 10.793999999999997 17.424 L 10.793999999999997 17.424 L 18.574999999999996 17.424 C 18.574999999999996 17.424 18.574999999999996 17.424 18.575999999999997 17.424 C 18.760999999999996 17.424 18.936999999999998 17.384 19.094999999999995 17.311 L 19.086999999999996 17.314 L 26.887999999999998 13.808 C 27.116 13.703 27.381999999999998 13.642 27.662999999999997 13.642 C 27.845999999999997 13.642 28.022999999999996 13.668 28.189999999999998 13.716 L 28.176999999999996 13.713 C 28.361999999999995 13.825999999999999 28.502999999999997 13.995999999999999 28.576999999999995 14.197999999999999 L 28.578999999999994 14.204999999999998 z"
			stroke-linecap="round" />
	</g>
	<g transform="matrix(0.69 0 0 0.69 576.74 344.38)">
		<g style="" vector-effect="non-scaling-stroke">
			<g transform="matrix(12.5 0 0 12.5 0 0)">
				<path
					style="stroke: none; stroke-width: 1; stroke-dasharray: none; stroke-linecap: butt; stroke-dashoffset: 0; stroke-linejoin: miter; stroke-miterlimit: 4; fill: rgb(0,0,0); fill-rule: nonzero; opacity: 1;"
					vector-effect="non-scaling-stroke" transform=" translate(-32, -31.02)"
					d="M 48 5 C 43.582 5 39.582 6.793 36.688 9.687999999999999 L 32 14.344 L 27.312 9.687999999999999 C 24.418 6.793 20.418 5 16 5 C 7.164 5 0 12.164 0 21 C 0 25.418 2.852 29.543 5.75 32.438 L 29.172 55.864000000000004 C 30.734 57.426 33.266 57.426 34.828 55.864000000000004 L 58.188 32.5 C 61.086 29.605 64 25.418 64 21 C 64 12.164 56.836 5 48 5 z M 32 47.375 L 11.375 26.75 C 9.926 25.305 8 23.211 8 21 C 8 16.582 11.582 13 16 13 C 18.211 13 20.211 13.895 21.656 15.344 L 29.171999999999997 22.828 C 30.733999999999998 24.39 33.266 24.39 34.827999999999996 22.828 L 42.343999999999994 15.344 C 43.789 13.895 45.789 13 48 13 C 52.418 13 56 16.582 56 21 C 56 23.211 54.074 25.305 52.625 26.75 L 32 47.375 z"
					stroke-linecap="round" />
			</g>
		</g>
	</g>
</svg>